<svg width="20" height="20" viewBox="0 0 20 20" fill="none" xmlns="http://www.w3.org/2000/svg">
<path d="M9.74503 12.85L4.90503 10V5C4.90503 2.79 6.72903 1 8.98103 1C10.378 1 11.611 1.69 12.346 2.741" stroke="white" stroke-width="1.5" stroke-linecap="round" stroke-linejoin="round"/>
<path d="M7.6001 17.1802C7.97597 17.7419 8.48489 18.2021 9.08157 18.5196C9.67826 18.8371 10.3442 19.0022 11.0201 19.0002C13.2701 19.0002 15.0961 17.2102 15.0961 15.0002V10.0002L10.1601 7.09717" stroke="white" stroke-width="1.5" stroke-linecap="round" stroke-linejoin="round"/>
<path d="M7.45215 11.4998V5.66981L11.8641 3.16981C13.8141 2.06481 16.3071 2.71981 17.4331 4.63281C17.778 5.216 17.9662 5.87844 17.9795 6.55582C17.9928 7.2332 17.8308 7.90252 17.5091 8.49881" stroke="white" stroke-width="1.5" stroke-linecap="round" stroke-linejoin="round"/>
<path d="M2.49015 11.4999C2.16835 12.0961 2.00615 12.7654 2.01929 13.4427C2.03244 14.1201 2.22047 14.7826 2.56515 15.3659C3.69115 17.2789 6.18515 17.9339 8.13515 16.8299L12.5471 14.3299L12.6431 8.73389" stroke="white" stroke-width="1.5" stroke-linecap="round" stroke-linejoin="round"/>
<path d="M15.096 15.6299C15.7776 15.6035 16.4418 15.4071 17.0282 15.0585C17.6145 14.7099 18.1043 14.2202 18.453 13.6339C19.579 11.7209 18.911 9.27392 16.961 8.16992L12.548 5.66992L7.48901 8.42492" stroke="white" stroke-width="1.5" stroke-linecap="round" stroke-linejoin="round"/>
<path d="M4.90504 4.37012C4.22325 4.39632 3.55885 4.59268 2.97234 4.9413C2.38583 5.28992 1.89586 5.77973 1.54704 6.36612C0.421042 8.28012 1.08904 10.7261 3.03904 11.8301L7.45204 14.3301L12.5 11.5801" stroke="white" stroke-width="1.5" stroke-linecap="round" stroke-linejoin="round"/>
</svg>
